# xmcd CD database file
#
# Track frame offsets:
#	150
#	18053
#	33916
#	53379
#	70176
#	93447
#	114057
#	128969
#	146184
#	160935
#	181809
#	203634
#	219182
#	240794
#	253509
#
# Disc length: 3637 seconds
#
# Revision: 0
# Processed by: cddbd v1.5.2PL0 Copyright (c) Steve Scherf et al.
# Submitted via: CDex 1.51
#
DISCID=b40e330f
DTITLE=Sampler - Louisiana Swamp Stomp
DYEAR=2010
DGENRE=Blues
TTITLE0=Omar Coleman - Scratch My Back
TTITLE1=Henry Gray - Times Are Getting Hard
TTITLE2=Lil Buck Sinegal - Don't You Lie To Me
TTITLE3=Carol Fran - Tou' Les Jours C'est Pas La Meme
TTITLE4=Little Freddie King - Can`t Do Nothing Babe
TTITLE5=Percy Sledge - First You Cry
TTITLE6=Sonny Landreth - Swamp Stomp
TTITLE7=Omar Coleman - Mojo Hand
TTITLE8=Carol Fran - I Needs To Be Be`d With
TTITLE9=Dwayne Dopsie - Travelling Man
TTITLE10=Larry Garner - It`s Killing Me
TTITLE11=Buddy Flett - Livin' Ain`t Easy
TTITLE12=Charlene Howard - Send Me Someone To Love
TTITLE13=Henry Gray - How Could You Do It
TTITLE14=Larry Garner - Ms. Boss
EXTD=YEAR: 2010
EXTT0=
EXTT1=
EXTT2=
EXTT3=
EXTT4=
EXTT5=
EXTT6=
EXTT7=
EXTT8=
EXTT9=
EXTT10=
EXTT11=
EXTT12=
EXTT13=
EXTT14=
PLAYORDER=
